<svg width="162" height="51" viewBox="0 0 162 51" fill="none" xmlns="http://www.w3.org/2000/svg">
<g clip-path="url(#clip0_209_3879)">
<path d="M14.9709 12.3376C15.0932 10.4486 14.8486 8.6227 14.4207 6.73379C14.3596 6.5449 13.9928 6.41897 14.0539 6.67082C14.7264 13.2191 11.4252 19.3895 11.7309 25.8748C11.6698 25.9377 11.6698 26.0637 11.7309 26.1266V26.1896C11.7309 26.2526 11.792 26.2526 11.792 26.1896C11.8532 26.1896 11.8532 26.1896 11.9143 26.1896C12.4645 26.1266 13.1369 26.3785 13.626 26.0637C14.1151 25.7488 14.1151 25.1192 14.0539 24.6155C14.0539 22.4747 13.7483 20.3969 13.9317 18.2562C14.1762 16.2413 14.8486 14.3524 14.9709 12.3376Z" fill="#4CA13A"/>
<path d="M25.7911 0.0582445C21.2673 3.71014 17.905 8.99909 16.2544 14.6658C15.7654 16.3029 15.4597 18.0029 15.0929 19.64C14.9095 20.3326 14.7261 21.0252 14.5427 21.7807C14.2371 22.7252 13.9314 23.7326 13.6258 24.6771C13.0756 26.3141 12.5865 27.9512 12.2197 29.6512C12.0363 30.5957 11.9141 31.5401 11.9141 32.4216H15.0929C15.2152 29.9031 15.3986 27.3845 15.8876 24.9289C16.499 21.8437 17.7827 19.1363 19.0665 16.2399C19.6167 14.9806 19.9835 13.6584 20.2892 12.3362C20.656 10.7621 21.0227 9.25095 21.5729 7.73982C22.4899 5.3472 24.0183 3.26939 25.5466 1.19159C25.7299 0.876773 25.9745 0.624918 26.1579 0.373063C26.3413 0.184172 26.0356 -0.130647 25.7911 0.0582445Z" fill="#4CA13A"/>
<path d="M26.1571 0.435402C25.9737 0.687256 25.7292 1.00208 25.5458 1.25393C24.9956 1.56875 24.5065 1.94653 24.0175 2.38728C23.0394 3.20581 22.2446 4.15026 21.4499 5.22064C20.0439 7.17252 19.1269 9.50218 18.2711 11.7689C17.4152 14.1615 16.7427 16.5541 15.8258 18.8838C15.459 19.8282 15.031 20.8356 14.542 21.7801C14.7254 21.0875 14.9088 20.3949 15.0922 19.6393C15.459 17.9393 15.7646 16.3023 16.2537 14.6652C17.9654 8.99847 21.2665 3.70952 25.7903 0.0576191C26.0348 -0.131272 26.3405 0.183547 26.1571 0.435402Z" fill="#3F7237"/>
<path d="M15.0926 32.4853C15.2148 29.9668 15.3982 27.4482 15.8873 24.9926C16.4986 21.9074 17.7824 19.2 19.0662 16.3037C19.6164 15.0444 19.9831 13.7221 20.2888 12.3999C20.1665 12.5258 20.1054 12.7147 19.9831 12.8406C19.3718 13.7851 18.8216 14.7925 18.3326 15.7999C17.2933 17.8777 16.5598 20.0185 15.9484 22.2222C15.276 24.4889 14.6035 26.7556 14.0533 29.0223C13.8088 30.1557 13.5031 31.352 13.442 32.4853H15.0926Z" fill="#B7D2A2"/>
<path d="M18.2107 11.9581C17.0492 14.2248 14.7262 15.7989 13.748 18.1286C13.6869 18.0026 13.3813 17.9397 13.3201 18.1286C12.4643 19.9545 12.6477 21.9694 13.6869 23.6694C13.748 23.7953 14.0537 23.8583 14.1148 23.6694C16.0711 20.0175 17.5382 16.1767 18.5164 12.147C18.5775 11.9581 18.333 11.7692 18.2107 11.9581Z" fill="#65AE4B"/>
<path d="M10.3255 17.7544C10.5089 19.4544 10.57 20.9026 10.57 21.6582C10.3866 25.1212 9.40852 28.4582 9.46965 31.9842C9.46965 32.1101 9.46965 32.299 9.46965 32.4879H13.5655C13.6266 30.599 13.8712 28.7101 14.1768 26.8212C14.3602 25.6878 14.3602 24.6804 14.1768 23.61C13.9323 22.2248 13.9934 20.8396 13.9934 19.4544C13.9934 17.5655 13.5655 15.8025 12.893 14.1025C12.7097 13.5988 12.4651 13.1581 12.2206 12.6544C11.7315 11.7099 10.9368 9.821 10.2644 8.18394C9.89758 7.23948 9.53079 6.42096 9.28626 5.85429C9.16399 5.6654 8.91947 5.72836 8.9806 5.91725C8.9806 6.42096 9.89758 13.0951 10.3255 17.7544Z" fill="#4C9241"/>
<path d="M11.7921 21.5928C11.3642 25.3076 9.77475 28.7706 9.40796 32.4225V32.4855H12.3423C12.4034 30.5966 12.648 28.7077 12.9536 26.8188C13.137 25.6854 13.137 24.678 12.9536 23.6076C12.7091 22.2224 12.7702 20.8372 12.7702 19.452C12.7702 17.5631 12.3423 15.8001 11.6698 14.1001C11.8532 15.989 11.9755 17.8779 11.9144 19.8298C11.9144 20.3965 11.8532 20.9631 11.7921 21.5928Z" fill="#B7D2A2"/>
<path d="M12.8922 21.5928C12.4643 25.3076 10.8748 28.7706 10.5081 32.4225V32.4855H13.4424C13.5035 30.5966 13.7481 28.7077 14.0537 26.8188C14.2371 25.6854 14.2371 24.678 14.0537 23.6076C13.8092 22.2224 13.8703 20.8372 13.8703 19.452C13.8703 17.5631 13.4424 15.8001 12.7699 14.1001C12.9533 15.989 13.0756 17.8779 13.0145 19.8298C13.0145 20.3965 12.9533 20.9631 12.8922 21.5928Z" fill="#3F7237"/>
<path d="M10.325 17.7544C9.89706 13.0951 8.91895 6.42096 8.91895 5.91725C8.91895 5.72836 9.16347 5.6654 9.22461 5.85429C9.46913 6.42096 9.83593 7.23948 10.2027 8.18394C10.3861 9.6321 10.4472 11.1432 10.5084 12.6544C10.5695 14.3544 10.5084 16.0544 10.325 17.7544Z" fill="#3F7237"/>
<path d="M7.45119 32.4861H10.7523C10.6912 30.0935 10.8135 27.7009 10.2633 25.3712C9.9576 23.986 9.34628 22.8527 8.73496 21.5934C8.00138 19.9563 7.94025 18.4452 8.06251 16.6193C8.06251 16.4304 7.81798 16.3045 7.69572 16.4933C7.02326 17.3748 6.901 18.4452 6.901 19.5156C6.901 21.0267 7.02326 22.5379 7.0844 24.049C7.26779 26.8824 7.39006 29.6528 7.45119 32.4861Z" fill="#3F7237"/>
<path d="M8.85759 32.4841C8.85759 32.4212 8.85759 32.4212 8.85759 32.4841C8.55193 30.5952 8.61306 28.7693 8.85759 26.9433C9.28551 24.1099 10.2025 21.2136 11.8531 18.5691C11.9753 18.3802 12.0976 18.1913 12.2198 18.0025C12.4644 17.6876 12.7089 17.3728 13.0146 17.121C13.1368 16.995 13.3202 16.8691 13.4425 16.7432C13.5036 16.6802 13.4425 16.5543 13.3202 16.6173C13.2591 16.6802 13.1368 16.6802 13.0757 16.7432C11.5474 17.7506 10.5081 19.1358 9.89683 20.0173C8.97985 21.4655 8.24627 23.0396 7.69608 24.6136C6.84023 27.1952 6.53457 29.8396 6.29004 32.4841H8.85759Z" fill="#5AA14C"/>
<path d="M8.85851 32.4848C8.85851 32.4218 8.85851 32.4218 8.85851 32.4848C8.55285 30.5959 8.61398 28.7699 8.85851 26.944C9.28643 24.1106 10.2034 21.2143 11.854 18.5698C11.2427 19.1995 10.7536 20.018 10.3257 20.7106C9.53096 22.0328 8.98077 23.481 8.55285 24.9921C7.8804 27.4477 7.81927 29.9662 8.18606 32.4218H8.85851V32.4848Z" fill="#B7D2A2"/>
<path d="M5.9236 24.4898C6.53492 26.5047 7.08511 28.5195 7.26851 30.5973C7.32964 31.227 7.39077 31.8566 7.32964 32.4862H9.04134C9.04134 32.2344 9.04134 31.9825 8.9802 31.7936C8.85794 29.7788 8.36888 27.7639 7.8187 25.875C7.26851 24.0491 6.59605 22.2231 6.04587 20.3972C5.80134 19.3268 5.49568 18.1935 5.25115 16.9972C5.00662 15.549 5.00662 14.2897 4.94549 12.8415C4.94549 12.4638 4.5787 12.4638 4.45644 12.7786C3.90625 14.4156 4.15077 16.4305 4.3953 18.1305C4.70096 20.3342 5.25115 22.412 5.9236 24.4898Z" fill="#77BC5B"/>
<path d="M8.91929 32.4845C8.18571 30.2808 9.40835 27.8252 10.1419 25.4326C10.4476 24.74 10.631 24.0474 10.631 23.2289C10.631 23.2289 10.631 23.2289 10.631 23.1659C10.631 22.914 10.6921 22.6622 10.631 22.4103C10.631 22.1585 10.4476 22.2214 10.4476 22.4733C10.5087 23.4178 10.0197 24.2363 9.71401 25.1807C9.28608 26.3141 8.61363 27.5104 8.24684 28.6437C7.81892 29.903 7.57439 31.2252 7.39099 32.5475H8.91929V32.4845Z" fill="#B7D2A2"/>
<path d="M20.962 33.3001C21.2065 33.426 21.0842 33.8038 20.8397 33.8038C18.0887 33.3001 14.482 32.9853 10.5695 32.9853C6.65705 32.9853 3.05026 33.3001 0.299316 33.8038C-0.00634423 33.8668 -0.128608 33.426 0.177052 33.3001C2.19441 32.2927 6.10686 31.6001 10.5695 31.6001C15.0321 31.6001 18.8835 32.3557 20.962 33.3001Z" fill="white"/>
<path d="M43.1453 3.77979V26.0782H44.8626V33.081H42.8742V27.921H29.4975V33.081H27.509V26.0782H28.9552C29.4071 25.2489 29.859 24.3275 30.2205 23.4982C30.5821 22.6689 30.8532 21.6554 31.034 20.6418C31.2148 19.6282 31.3955 18.4304 31.4859 17.0483C31.5763 15.6661 31.5763 14.0997 31.5763 12.2569V3.77979H43.1453ZM33.6551 5.62263V12.8097C33.6551 15.574 33.4743 18.0618 33.1128 20.3654C32.7513 22.5768 32.1186 24.5118 31.2148 26.0782H41.1569V5.62263H33.6551Z" fill="white"/>
<path d="M48.5691 18.9763C48.5691 20.082 48.5691 21.0955 48.6595 22.0169C48.7498 22.9384 48.8402 23.7676 49.1114 24.5048C49.2921 25.2419 49.6537 25.7948 50.1056 26.1633C50.5575 26.5319 51.0998 26.8083 51.9133 26.8083C52.546 26.8083 53.0882 26.624 53.4498 26.3476C53.8113 26.0712 54.1729 25.7026 54.3536 25.2419C54.5344 24.7812 54.7152 24.3205 54.8055 23.7676C54.8959 23.2148 54.9863 22.6619 54.9863 22.1091H56.7939C56.7939 22.8462 56.7036 23.6755 56.5228 24.4126C56.3421 25.1498 56.0709 25.7948 55.619 26.4398C55.2575 26.9926 54.7151 27.5455 54.0825 27.8219C53.4498 28.1905 52.7267 28.3747 51.8229 28.3747C50.5575 28.3747 49.6537 28.0983 48.9306 27.4533C48.2075 26.8083 47.7556 26.0712 47.3941 25.1498C47.0326 24.2283 46.8518 23.2148 46.7614 22.1091C46.671 21.0034 46.671 20.082 46.671 19.1606C46.671 18.2391 46.671 17.3177 46.7614 16.212C46.8518 15.1063 47.0326 14.0927 47.3941 13.1713C47.7556 12.2499 48.2075 11.4206 48.9306 10.7756C49.5633 10.0385 50.5575 9.66992 51.7325 9.66992C52.7267 9.66992 53.5402 9.85421 54.1729 10.3149C54.8055 10.7756 55.3478 11.3285 55.7094 12.0656C56.0709 12.8028 56.3421 13.632 56.5228 14.4613C56.7036 15.3827 56.7036 16.212 56.7036 17.0413V18.8841H48.5691V18.9763ZM54.8959 17.3177C54.8959 16.7649 54.8959 16.1199 54.8055 15.4749C54.7152 14.7377 54.6248 14.0927 54.3536 13.5399C54.1729 12.8949 53.8113 12.4342 53.3594 11.9735C52.9075 11.6049 52.3652 11.3285 51.6421 11.3285C50.919 11.3285 50.3767 11.5128 49.9248 11.9735C49.4729 12.4342 49.2018 12.8949 48.9306 13.5399C48.7498 14.1849 48.5691 14.8299 48.4787 15.4749C48.3883 16.212 48.3883 16.7649 48.3883 17.3177H54.8959Z" fill="white"/>
<path d="M61.3127 17.6036H67.5491V10.1401H69.3568V27.9235H67.5491V19.3543H61.3127V27.9235H59.505V10.1401H61.3127V17.6036Z" fill="white"/>
<path d="M83.8181 10.1401V26.265H85.3547V32.6228H83.6374V27.8314H73.1529V32.6228H71.526V26.265H72.8818C73.2433 25.62 73.5144 24.975 73.876 24.33C74.1471 23.5928 74.4183 22.8557 74.599 22.0264C74.7798 21.1971 74.9606 20.1836 75.051 19.0779C75.1413 17.9722 75.2317 16.6822 75.2317 15.3001V10.1401H83.8181ZM76.949 11.7987V15.9451C76.949 17.2351 76.8586 18.3408 76.7682 19.3543C76.6779 20.3679 76.4971 21.2893 76.3163 22.1186C76.1356 22.9478 75.8644 23.685 75.5933 24.4221C75.3221 25.0671 75.051 25.7121 74.7798 26.3571H82.0105V11.7987H76.949Z" fill="white"/>
<path d="M89.2407 33.9954H87.433V10.1306H89.2407V11.697H89.331C89.6926 11.1442 90.1445 10.5913 90.7772 10.2228C91.4099 9.85421 92.0425 9.66992 92.856 9.66992C94.031 9.66992 95.0252 9.94635 95.6579 10.4992C96.3809 11.0521 96.9232 11.7892 97.2848 12.6185C97.6463 13.4477 97.9175 14.4613 98.0079 15.4749C98.0982 16.4884 98.1886 17.502 98.1886 18.4234C98.1886 19.6213 98.0982 20.8191 98.0079 22.0169C97.9175 23.2148 97.6463 24.2283 97.2848 25.2419C96.9232 26.1633 96.3809 26.9005 95.7483 27.5455C95.0252 28.0983 94.1214 28.3747 92.9464 28.3747C91.4099 28.3747 90.2349 27.7297 89.331 26.4398V33.9954H89.2407ZM92.7656 11.3285C91.9522 11.3285 91.3195 11.6049 90.7772 12.0656C90.3253 12.5263 89.9637 13.1713 89.6926 13.9085C89.4214 14.6456 89.331 15.4749 89.2407 16.3042C89.1503 17.1334 89.1503 17.9627 89.1503 18.6077C89.1503 19.437 89.1503 20.3584 89.2407 21.2798C89.331 22.2012 89.4214 23.1226 89.6926 23.8598C89.9637 24.6891 90.2349 25.334 90.6868 25.7948C91.1387 26.3476 91.7714 26.5319 92.5848 26.5319C93.3983 26.5319 94.031 26.3476 94.4829 25.8869C94.9348 25.4262 95.2963 24.8733 95.5675 24.1362C95.8386 23.3991 96.0194 22.5698 96.1098 21.5562C96.2002 20.5427 96.2002 19.5291 96.2002 18.5156C96.2002 17.7784 96.2002 17.0413 96.1098 16.212C96.0194 15.3827 95.929 14.5535 95.6579 13.8163C95.3867 13.0792 95.0252 12.4342 94.5733 11.9735C94.1214 11.6049 93.4887 11.3285 92.7656 11.3285Z" fill="white"/>
<path d="M105.51 28.3771C104.245 28.3771 103.341 28.1006 102.618 27.4557C101.895 26.9028 101.352 26.0735 100.991 25.1521C100.629 24.2307 100.358 23.2171 100.268 22.1114C100.177 21.0057 100.087 19.9922 100.087 18.9786C100.087 17.965 100.177 16.9514 100.268 15.8457C100.358 14.74 100.629 13.7265 100.991 12.805C101.352 11.8836 101.895 11.1465 102.618 10.5015C103.341 9.8565 104.335 9.58008 105.6 9.58008C106.866 9.58008 107.77 9.8565 108.493 10.5015C109.216 11.1465 109.758 11.8836 110.12 12.805C110.481 13.7265 110.752 14.74 110.843 15.8457C110.933 16.9514 111.023 17.965 111.023 18.9786C111.023 19.9922 110.933 21.0057 110.843 22.1114C110.752 23.2171 110.481 24.2307 110.12 25.1521C109.758 26.0735 109.216 26.8107 108.493 27.4557C107.679 28.1006 106.775 28.3771 105.51 28.3771ZM105.42 26.7185C106.233 26.7185 106.956 26.4421 107.408 25.9814C107.86 25.5207 108.312 24.8757 108.493 24.1385C108.764 23.4014 108.945 22.5721 108.945 21.6507C109.035 20.7293 109.035 19.8079 109.035 18.9786C109.035 18.2414 109.035 17.5043 108.945 16.5829C108.854 15.6614 108.764 14.8322 108.493 14.095C108.222 13.2658 107.86 12.6208 107.408 12.0679C106.956 11.5151 106.233 11.2386 105.42 11.2386C104.606 11.2386 103.974 11.5151 103.431 12.0679C102.979 12.6208 102.618 13.2658 102.347 14.095C102.075 14.9243 101.895 15.7536 101.895 16.5829C101.804 17.5043 101.804 18.2414 101.804 18.9786C101.804 19.8079 101.804 20.7293 101.895 21.6507C101.985 22.5721 102.075 23.4014 102.347 24.1385C102.618 24.8757 102.979 25.5207 103.431 25.9814C103.974 26.5342 104.606 26.7185 105.42 26.7185Z" fill="white"/>
<path d="M123.497 10.1401V27.9235H121.689V11.7987H115.453V27.9235H113.645V10.1401H123.497Z" fill="white"/>
<path d="M136.873 28.0062C136.692 28.0983 136.512 28.1905 136.331 28.1905C136.15 28.1905 135.879 28.1905 135.698 28.1905C134.704 28.1905 134.071 27.6376 133.89 26.4398C133.439 27.0848 132.896 27.5455 132.173 27.914C131.45 28.2826 130.727 28.3747 130.004 28.3747C129.191 28.3747 128.558 28.2826 128.016 28.0062C127.473 27.7297 127.112 27.4533 126.841 26.9926C126.569 26.624 126.298 26.0712 126.208 25.5183C126.117 24.9655 126.027 24.3205 126.027 23.5834C126.027 22.2934 126.208 21.2798 126.66 20.5427C127.112 19.8055 127.835 19.1606 128.829 18.6998L132.535 17.0413C133.077 16.857 133.348 16.4884 133.529 16.1199C133.71 15.7513 133.8 15.1063 133.8 14.1849C133.8 13.2635 133.529 12.5263 133.077 12.0656C132.625 11.6049 131.992 11.3285 131.179 11.3285C130.546 11.3285 130.094 11.4206 129.733 11.6049C129.371 11.7892 129.1 12.0656 128.919 12.342C128.739 12.6185 128.648 12.987 128.558 13.3556C128.467 13.7242 128.467 14.0927 128.377 14.5535H126.569C126.569 12.8949 126.931 11.6971 127.744 10.8678C128.558 10.0385 129.733 9.66992 131.179 9.66992C132.806 9.66992 133.89 10.0385 134.614 10.8678C135.337 11.6971 135.608 12.8949 135.608 14.4613V25.3341C135.608 25.6105 135.608 25.7948 135.608 25.979C135.608 26.1633 135.698 26.2555 135.789 26.3476C135.879 26.4398 135.969 26.4398 136.15 26.5319C136.331 26.5319 136.512 26.624 136.783 26.624V28.0062H136.873ZM133.8 18.3313C133.167 18.6077 132.535 18.8841 131.992 19.1606C131.45 19.437 130.908 19.7134 130.275 19.9898C129.371 20.4505 128.739 20.9112 128.377 21.3719C128.016 21.8327 127.835 22.5698 127.835 23.5834C127.835 24.4126 128.016 25.1498 128.287 25.7948C128.648 26.3476 129.281 26.7162 130.185 26.7162C130.908 26.7162 131.54 26.5319 131.992 26.2555C132.444 25.8869 132.806 25.5183 133.077 25.0576C133.348 24.5969 133.529 24.0441 133.619 23.4912C133.71 22.9384 133.71 22.3855 133.71 21.8327V18.3313H133.8Z" fill="white"/>
<path d="M140.67 33.9954H138.862V10.1306H140.67V11.697H140.76C141.122 11.1442 141.574 10.5913 142.206 10.2228C142.839 9.85421 143.472 9.66992 144.285 9.66992C145.46 9.66992 146.454 9.94635 147.087 10.4992C147.81 11.0521 148.352 11.7892 148.714 12.6185C149.075 13.4477 149.347 14.4613 149.437 15.4749C149.527 16.4884 149.618 17.502 149.618 18.4234C149.618 19.6213 149.527 20.8191 149.437 22.0169C149.347 23.2148 149.075 24.2283 148.714 25.2419C148.352 26.1633 147.81 26.9005 147.177 27.5455C146.454 28.0983 145.55 28.3747 144.375 28.3747C142.839 28.3747 141.664 27.7297 140.76 26.4398V33.9954H140.67ZM144.195 11.3285C143.381 11.3285 142.749 11.6049 142.206 12.0656C141.754 12.5263 141.393 13.1713 141.122 13.9085C140.851 14.6456 140.76 15.4749 140.67 16.3042C140.579 17.1334 140.579 17.9627 140.579 18.6077C140.579 19.437 140.579 20.3584 140.67 21.2798C140.76 22.2012 140.851 23.1226 141.122 23.8598C141.393 24.6891 141.664 25.334 142.116 25.7948C142.568 26.3476 143.2 26.5319 144.014 26.5319C144.827 26.5319 145.46 26.3476 145.912 25.8869C146.364 25.4262 146.725 24.8733 146.997 24.1362C147.268 23.3991 147.448 22.5698 147.539 21.5562C147.629 20.5427 147.629 19.5291 147.629 18.5156C147.629 17.7784 147.629 17.0413 147.539 16.212C147.448 15.3827 147.358 14.5535 147.087 13.8163C146.816 13.0792 146.454 12.4342 146.002 11.9735C145.641 11.6049 145.008 11.3285 144.195 11.3285Z" fill="white"/>
<path d="M153.956 18.5251L159.65 10.1401H161.909L157.21 16.7744L162 27.9235H160.102L155.854 18.7093L153.956 21.4736V28.0157H152.148V10.1401H153.956V18.5251Z" fill="white"/>
<path d="M0.176025 50.0002H7.63802V48.0822H2.31803V46.0242H6.93803V44.1062H2.31803V42.1182H7.56803V40.2002H0.176025V50.0002ZM9.55493 50.0002H11.6829V43.7702L16.4289 50.0002H18.2629V40.2002H16.1349V46.2342L11.5429 40.2002H9.55493V50.0002ZM22.8415 50.1402C23.9055 50.1402 24.7875 49.8322 25.3895 49.2302C25.9775 48.6422 26.3135 47.7742 26.3135 46.6122V40.2002H24.1015V46.5142C24.1015 47.6482 23.5975 48.1382 22.7855 48.1382C22.0995 48.1382 21.5535 47.7742 20.9935 47.1582L19.6355 48.6702C20.3075 49.4682 21.3155 50.1402 22.8415 50.1402ZM33.2778 50.1682C36.3018 50.1682 38.4998 47.8862 38.4998 45.1002C38.4998 42.2862 36.3298 40.0322 33.3058 40.0322C30.2818 40.0322 28.0838 42.3142 28.0838 45.1002C28.0838 47.9142 30.2538 50.1682 33.2778 50.1682ZM33.3058 48.1802C31.5698 48.1802 30.3378 46.7802 30.3378 45.1002C30.3378 43.3922 31.5418 42.0202 33.2778 42.0202C35.0138 42.0202 36.2458 43.4202 36.2458 45.1002C36.2458 46.8082 35.0418 48.1802 33.3058 48.1802ZM42.3363 50.0002H44.4923V46.0942L48.2583 40.2002H45.8083L43.4283 44.1342L41.0903 40.2002H38.5703L42.3363 46.1362V50.0002ZM56.5551 50.0002H58.7111V46.0942L62.4771 40.2002H60.0271L57.6471 44.1342L55.3091 40.2002H52.7891L56.5551 46.1362V50.0002ZM67.7446 50.1682C70.7686 50.1682 72.9666 47.8862 72.9666 45.1002C72.9666 42.2862 70.7966 40.0322 67.7726 40.0322C64.7486 40.0322 62.5506 42.3142 62.5506 45.1002C62.5506 47.9142 64.7206 50.1682 67.7446 50.1682ZM67.7726 48.1802C66.0366 48.1802 64.8046 46.7802 64.8046 45.1002C64.8046 43.3922 66.0086 42.0202 67.7446 42.0202C69.4806 42.0202 70.7126 43.4202 70.7126 45.1002C70.7126 46.8082 69.5086 48.1802 67.7726 48.1802ZM78.9671 50.1542C81.5991 50.1542 83.2651 48.6982 83.2651 45.7302V40.2002H81.1091V45.8142C81.1091 47.3682 80.3111 48.1662 78.9951 48.1662C77.6791 48.1662 76.8811 47.3402 76.8811 45.7442V40.2002H74.7251V45.8002C74.7251 48.6842 76.3351 50.1542 78.9671 50.1542ZM85.4612 50.0002H87.6172V46.8642H89.2832L91.4112 50.0002H93.9312L91.5372 46.5002C92.7832 46.0382 93.6372 45.0442 93.6372 43.4622C93.6372 42.5102 93.3432 41.7402 92.7972 41.1942C92.1532 40.5502 91.1872 40.2002 89.9412 40.2002H85.4612V50.0002ZM87.6172 44.9602V42.1462H89.7592C90.8092 42.1462 91.4532 42.6222 91.4532 43.5462C91.4532 44.4002 90.8512 44.9602 89.8012 44.9602H87.6172ZM104.494 50.1682C106.286 50.1682 107.672 49.4682 108.68 48.6142V44.3582H104.424V46.2202H106.594V47.6202C106.048 48.0122 105.348 48.2082 104.564 48.2082C102.828 48.2082 101.596 46.8922 101.596 45.1002C101.596 43.4062 102.842 42.0202 104.41 42.0202C105.544 42.0202 106.216 42.3842 106.972 43.0142L108.33 41.3762C107.308 40.5082 106.244 40.0322 104.48 40.0322C101.512 40.0322 99.342 42.3142 99.342 45.1002C99.342 48.0262 101.442 50.1682 104.494 50.1682ZM109.914 50.0002H112.112L113.008 47.8022H117.152L118.048 50.0002H120.302L116.102 40.1302H114.114L109.914 50.0002ZM113.778 45.8982L115.08 42.7202L116.382 45.8982H113.778ZM121.815 50.0002H123.971V46.8642H125.637L127.765 50.0002H130.285L127.891 46.5002C129.137 46.0382 129.991 45.0442 129.991 43.4622C129.991 42.5102 129.697 41.7402 129.151 41.1942C128.507 40.5502 127.541 40.2002 126.295 40.2002H121.815V50.0002ZM123.971 44.9602V42.1462H126.113C127.163 42.1462 127.807 42.6222 127.807 43.5462C127.807 44.4002 127.205 44.9602 126.155 44.9602H123.971ZM131.932 50.0002H135.754C138.834 50.0002 140.962 47.8582 140.962 45.1002C140.962 42.3142 138.834 40.2002 135.754 40.2002H131.932V50.0002ZM134.088 48.0542V42.1462H135.754C137.518 42.1462 138.708 43.3642 138.708 45.1002C138.708 46.8642 137.518 48.0542 135.754 48.0542H134.088ZM142.883 50.0002H150.345V48.0822H145.025V46.0242H149.645V44.1062H145.025V42.1182H150.275V40.2002H142.883V50.0002ZM152.262 50.0002H154.39V43.7702L159.136 50.0002H160.97V40.2002H158.842V46.2342L154.25 40.2002H152.262V50.0002Z" fill="white"/>
</g>
<defs>
<clipPath id="clip0_209_3879">
<rect width="162" height="51" fill="white"/>
</clipPath>
</defs>
</svg>
