<svg width="170" height="54" viewBox="0 0 170 54" fill="none" xmlns="http://www.w3.org/2000/svg">
<g clip-path="url(#clip0_298_3550)">
<path d="M15.7102 13.0632C15.8385 11.0632 15.5819 9.12984 15.1328 7.12982C15.0687 6.92982 14.6838 6.79648 14.7479 7.06315C15.4536 13.9966 11.9894 20.53 12.3102 27.3968C12.246 27.4634 12.246 27.5968 12.3102 27.6634V27.7301C12.3102 27.7968 12.3743 27.7968 12.3743 27.7301C12.4385 27.7301 12.4385 27.7301 12.5027 27.7301C13.08 27.6634 13.7857 27.9301 14.2989 27.5968C14.8121 27.2633 14.8121 26.5967 14.7479 26.0634C14.7479 23.7967 14.4272 21.5966 14.6196 19.33C14.8762 17.1966 15.5819 15.1966 15.7102 13.0632Z" fill="#4CA13A"/>
<path d="M27.0646 0.0616706C22.3174 3.92838 18.7891 9.52845 17.057 15.5285C16.5438 17.2619 16.2231 19.0619 15.8382 20.7953C15.6457 21.5286 15.4533 22.262 15.2608 23.0619C14.9401 24.062 14.6193 25.1286 14.2985 26.1287C13.7212 27.862 13.208 29.5954 12.8231 31.3954C12.6306 32.3954 12.5023 33.3954 12.5023 34.3288H15.8382C15.9665 31.6621 16.1589 28.9954 16.6721 26.3953C17.3136 23.1286 18.6608 20.262 20.008 17.1952C20.5853 15.8618 20.9702 14.4618 21.291 13.0619C21.6759 11.3952 22.0608 9.79512 22.6382 8.1951C23.6004 5.66174 25.2043 3.46171 26.808 1.26168C27.0004 0.928348 27.2571 0.661678 27.4495 0.395008C27.642 0.195006 27.3212 -0.138332 27.0646 0.0616706Z" fill="#4CA13A"/>
<path d="M27.4488 0.461014C27.2564 0.727683 26.9998 1.06103 26.8073 1.32769C26.23 1.66103 25.7167 2.06103 25.2035 2.52771C24.1771 3.39439 23.3431 4.39439 22.5092 5.52774C21.0337 7.59443 20.0714 10.0611 19.1733 12.4612C18.2752 14.9945 17.5696 17.5279 16.6073 19.9946C16.2224 20.9946 15.7733 22.0612 15.2601 23.0613C15.4526 22.3279 15.645 21.5946 15.8375 20.7946C16.2224 18.9946 16.5431 17.2613 17.0564 15.5279C18.8526 9.52779 22.3167 3.92773 27.0639 0.0610084C27.3205 -0.138994 27.6413 0.194344 27.4488 0.461014Z" fill="#3F7237"/>
<path d="M15.8379 34.3963C15.9662 31.7296 16.1587 29.0629 16.6719 26.4628C17.3134 23.1962 18.6606 20.3295 20.0077 17.2628C20.5851 15.9294 20.97 14.5294 21.2907 13.1294C21.1624 13.2627 21.0983 13.4627 20.97 13.5961C20.3285 14.5961 19.7511 15.6628 19.2379 16.7294C18.1473 18.9295 17.3775 21.1962 16.736 23.5295C16.0304 25.9295 15.3247 28.3295 14.7473 30.7296C14.4907 31.9297 14.17 33.1963 14.1058 34.3963H15.8379Z" fill="#B7D2A2"/>
<path d="M19.1101 12.6615C17.8912 15.0615 15.4535 16.7282 14.4271 19.1949C14.3629 19.0615 14.0422 18.9949 13.978 19.1949C13.0799 21.1282 13.2723 23.2616 14.3629 25.0616C14.4271 25.1949 14.7478 25.2616 14.812 25.0616C16.8648 21.1949 18.4044 17.1282 19.4308 12.8615C19.495 12.6615 19.2384 12.4615 19.1101 12.6615Z" fill="#65AE4B"/>
<path d="M10.8355 18.7988C11.028 20.5988 11.0921 22.1322 11.0921 22.9322C10.8997 26.5989 9.87325 30.1322 9.9374 33.8656C9.9374 33.999 9.9374 34.199 9.9374 34.399H14.2355C14.2997 32.399 14.5563 30.399 14.877 28.3989C15.0695 27.1989 15.0695 26.1322 14.877 24.9988C14.6204 23.5322 14.6846 22.0655 14.6846 20.5988C14.6846 18.5988 14.2355 16.7321 13.5298 14.9321C13.3374 14.3987 13.0808 13.9321 12.8242 13.3987C12.311 12.3987 11.477 10.3987 10.7714 8.66534C10.3865 7.66532 10.0015 6.79865 9.74494 6.19864C9.61664 5.99864 9.36004 6.06531 9.42419 6.26531C9.42419 6.79865 10.3865 13.8654 10.8355 18.7988Z" fill="#4C9241"/>
<path d="M12.3744 22.8629C11.9254 26.7962 10.2575 30.4629 9.87256 34.3296V34.3963H12.9518C13.016 32.3963 13.2726 30.3963 13.5933 28.3963C13.7858 27.1962 13.7858 26.1296 13.5933 24.9962C13.3367 23.5295 13.4009 22.0629 13.4009 20.5962C13.4009 18.5962 12.9518 16.7295 12.2461 14.9294C12.4386 16.9295 12.5669 18.9295 12.5028 20.9962C12.5028 21.5962 12.4386 22.1962 12.3744 22.8629Z" fill="#B7D2A2"/>
<path d="M13.5287 22.8629C13.0797 26.7962 11.4118 30.4629 11.0269 34.3296V34.3963H14.1061C14.1702 32.3963 14.4269 30.3963 14.7476 28.3963C14.9401 27.1962 14.9401 26.1296 14.7476 24.9962C14.491 23.5295 14.5552 22.0629 14.5552 20.5962C14.5552 18.5962 14.1061 16.7295 13.4004 14.9294C13.5929 16.9295 13.7212 18.9295 13.657 20.9962C13.657 21.5962 13.5929 22.1962 13.5287 22.8629Z" fill="#3F7237"/>
<path d="M10.835 18.7988C10.3859 13.8654 9.3595 6.79865 9.3595 6.26531C9.3595 6.06531 9.6161 5.99864 9.68025 6.19864C9.93686 6.79865 10.3218 7.66532 10.7067 8.66534C10.8991 10.1987 10.9633 11.7987 11.0274 13.3987C11.0916 15.1987 11.0274 16.9988 10.835 18.7988Z" fill="#3F7237"/>
<path d="M7.81918 34.3969H11.2833C11.2192 31.8636 11.3475 29.3303 10.7701 26.8635C10.4494 25.3969 9.80786 24.1969 9.16635 22.8635C8.39654 21.1301 8.33239 19.5301 8.46069 17.5968C8.46069 17.3968 8.20409 17.2634 8.07578 17.4634C7.37012 18.3968 7.24182 19.5301 7.24182 20.6635C7.24182 22.2635 7.37012 23.8635 7.43427 25.4635C7.62673 28.4636 7.75503 31.397 7.81918 34.3969Z" fill="#3F7237"/>
<path d="M9.29493 34.395C9.29493 34.3284 9.29493 34.3284 9.29493 34.395C8.97417 32.395 9.03832 30.4617 9.29493 28.5283C9.74398 25.5283 10.7062 22.4616 12.4383 19.6615C12.5666 19.4615 12.6949 19.2615 12.8232 19.0615C13.0798 18.7282 13.3364 18.3948 13.6572 18.1282C13.7855 17.9948 13.9779 17.8615 14.1062 17.7282C14.1704 17.6615 14.1062 17.5282 13.9779 17.5948C13.9138 17.6615 13.7855 17.6615 13.7213 17.7282C12.1176 18.7948 11.027 20.2615 10.3855 21.1949C9.42323 22.7282 8.65342 24.3949 8.07606 26.0616C7.17794 28.795 6.85719 31.595 6.60059 34.395H9.29493Z" fill="#5AA14C"/>
<path d="M9.29592 34.3956C9.29592 34.3289 9.29592 34.3289 9.29592 34.3956C8.97517 32.3956 9.03932 30.4622 9.29592 28.5289C9.74498 25.5288 10.7072 22.4621 12.4393 19.6621C11.7978 20.3288 11.2846 21.1955 10.8355 21.9288C10.0016 23.3288 9.42422 24.8622 8.97517 26.4622C8.26951 29.0622 8.20536 31.7289 8.59026 34.3289H9.29592V34.3956Z" fill="#B7D2A2"/>
<path d="M6.21608 25.9304C6.85759 28.0639 7.43495 30.1972 7.62741 32.3972C7.69156 33.0639 7.75571 33.7306 7.69156 34.3972H9.48779C9.48779 34.1306 9.48779 33.8639 9.42363 33.6639C9.29533 31.5306 8.78212 29.3971 8.20477 27.3971C7.62741 25.4638 6.92174 23.5304 6.34439 21.5971C6.08779 20.4637 5.76703 19.2637 5.51043 17.997C5.25382 16.4637 5.25382 15.1303 5.18967 13.597C5.18967 13.197 4.80477 13.197 4.67646 13.5303C4.09911 15.2637 4.35571 17.397 4.61231 19.1971C4.93307 21.5304 5.51043 23.7304 6.21608 25.9304Z" fill="#77BC5B"/>
<path d="M9.35975 34.3954C8.58994 32.062 9.87296 29.462 10.6428 26.9286C10.9635 26.1953 11.156 25.462 11.156 24.5953C11.156 24.5953 11.156 24.5953 11.156 24.5286C11.156 24.2619 11.2201 23.9953 11.156 23.7286C11.156 23.4619 10.9635 23.5286 10.9635 23.7953C11.0277 24.7953 10.5145 25.662 10.1937 26.662C9.74466 27.862 9.039 29.1287 8.65409 30.3287C8.20504 31.662 7.94843 33.062 7.75598 34.4621H9.35975V34.3954Z" fill="#B7D2A2"/>
<path d="M21.9972 35.259C22.2537 35.3923 22.1254 35.7923 21.8688 35.7923C18.982 35.259 15.1972 34.9257 11.0915 34.9257C6.98579 34.9257 3.20089 35.259 0.314097 35.7923C-0.00665752 35.859 -0.134959 35.3923 0.185795 35.259C2.30278 34.1923 6.40843 33.459 11.0915 33.459C15.7744 33.459 19.816 34.259 21.9972 35.259Z" fill="white"/>
<path d="M45.2759 4.0022V27.6123H47.078V35.027H44.9914V29.5635H30.9541V35.027H28.8674V27.6123H30.385C30.8592 26.7342 31.3335 25.7586 31.7128 24.8805C32.0922 24.0024 32.3768 22.9293 32.5665 21.8561C32.7562 20.7829 32.9458 19.5146 33.0407 18.0512C33.1355 16.5877 33.1355 14.9291 33.1355 12.9779V4.0022H45.2759ZM35.317 5.95344V13.5633C35.317 16.4902 35.1273 19.1243 34.7479 21.5634C34.3685 23.9049 33.7046 25.9537 32.7562 27.6123H43.1893V5.95344H35.317Z" fill="white"/>
<path d="M50.9675 20.0926C50.9675 21.2633 50.9675 22.3365 51.0623 23.3121C51.1572 24.2878 51.252 25.1657 51.5366 25.9463C51.7263 26.7268 52.1057 27.3122 52.5799 27.7024C53.0541 28.0927 53.6232 28.3853 54.4768 28.3853C55.1408 28.3853 55.7098 28.1902 56.0892 27.8975C56.4686 27.6049 56.848 27.2146 57.0377 26.7268C57.2274 26.239 57.4171 25.7512 57.5119 25.1657C57.6068 24.5804 57.7016 23.995 57.7016 23.4097H59.5985C59.5985 24.1901 59.5037 25.0682 59.314 25.8487C59.1243 26.6293 58.8398 27.3122 58.3655 27.9951C57.9862 28.5805 57.4171 29.1659 56.7531 29.4585C56.0892 29.8488 55.3304 30.0439 54.382 30.0439C53.0541 30.0439 52.1056 29.7512 51.3469 29.0683C50.5881 28.3853 50.1139 27.6049 49.7345 26.6293C49.3551 25.6535 49.1654 24.5804 49.0706 23.4097C48.9757 22.2389 48.9757 21.2633 48.9757 20.2877C48.9757 19.3121 48.9757 18.3364 49.0706 17.1657C49.1654 15.9949 49.3551 14.9218 49.7345 13.9461C50.1139 12.9705 50.5881 12.0925 51.3469 11.4095C52.0108 10.629 53.0541 10.2388 54.2871 10.2388C55.3304 10.2388 56.1841 10.4339 56.848 10.9217C57.5119 11.4095 58.081 11.9949 58.4604 12.7754C58.8398 13.5559 59.1243 14.4339 59.314 15.312C59.5037 16.2876 59.5037 17.1657 59.5037 18.0437V19.995H50.9675V20.0926ZM57.6068 18.3364C57.6068 17.7511 57.6068 17.0681 57.5119 16.3852C57.4171 15.6047 57.3222 14.9218 57.0377 14.3364C56.848 13.6534 56.4686 13.1656 55.9944 12.6778C55.5201 12.2876 54.9511 11.9949 54.1923 11.9949C53.4335 11.9949 52.8644 12.19 52.3902 12.6778C51.916 13.1656 51.6314 13.6534 51.3469 14.3364C51.1572 15.0193 50.9675 15.7023 50.8726 16.3852C50.7778 17.1657 50.7778 17.7511 50.7778 18.3364H57.6068Z" fill="white"/>
<path d="M64.3404 18.6391H70.8849V10.7366H72.7818V29.5661H70.8849V20.4928H64.3404V29.5661H62.4435V10.7366H64.3404V18.6391Z" fill="white"/>
<path d="M87.9572 10.7366V27.81H89.5697V34.5418H87.7676V29.4685H76.7653V34.5418H75.0581V27.81H76.4808C76.8602 27.1271 77.1447 26.4441 77.5241 25.7612C77.8087 24.9806 78.0932 24.2001 78.2829 23.3221C78.4726 22.444 78.6623 21.3709 78.7571 20.2001C78.852 19.0294 78.9468 17.6635 78.9468 16.2V10.7366H87.9572ZM80.7489 12.4927V16.883C80.7489 18.2489 80.6541 19.4196 80.5592 20.4928C80.4644 21.566 80.2747 22.5416 80.085 23.4197C79.8953 24.2977 79.6107 25.0782 79.3262 25.8587C79.0417 26.5416 78.7571 27.2246 78.4726 27.9075H86.0604V12.4927H80.7489Z" fill="white"/>
<path d="M93.6475 35.9952H91.7506V10.7266H93.6475V12.3851H93.7424C94.1218 11.7998 94.596 11.2144 95.2599 10.8241C95.9239 10.4339 96.5878 10.2388 97.4414 10.2388C98.6744 10.2388 99.7177 10.5315 100.382 11.1168C101.14 11.7022 101.71 12.4827 102.089 13.3608C102.468 14.2388 102.753 15.312 102.848 16.3852C102.942 17.4584 103.037 18.5316 103.037 19.5072C103.037 20.7755 102.942 22.0438 102.848 23.3121C102.753 24.5804 102.468 25.6535 102.089 26.7268C101.71 27.7024 101.14 28.4829 100.477 29.1659C99.7177 29.7512 98.7693 30.0439 97.5363 30.0439C95.9239 30.0439 94.6909 29.3609 93.7424 27.9951V35.9952H93.6475ZM97.3466 11.9949C96.493 11.9949 95.829 12.2876 95.2599 12.7754C94.7857 13.2632 94.4063 13.9461 94.1218 14.7266C93.8372 15.5071 93.7424 16.3852 93.6475 17.2632C93.5527 18.1413 93.5527 19.0194 93.5527 19.7023C93.5527 20.5804 93.5527 21.556 93.6475 22.5316C93.7424 23.5072 93.8372 24.4828 94.1218 25.2634C94.4063 26.1415 94.6909 26.8243 95.1651 27.3122C95.6393 27.8975 96.3033 28.0927 97.1569 28.0927C98.0105 28.0927 98.6744 27.8975 99.1487 27.4097C99.6229 26.9219 100.002 26.3365 100.287 25.556C100.571 24.7756 100.761 23.8975 100.856 22.8243C100.951 21.7511 100.951 20.6779 100.951 19.6047C100.951 18.8242 100.951 18.0437 100.856 17.1657C100.761 16.2876 100.666 15.4096 100.382 14.6291C100.097 13.8486 99.7177 13.1656 99.2435 12.6778C98.7693 12.2876 98.1053 11.9949 97.3466 11.9949Z" fill="white"/>
<path d="M110.72 30.0465C109.392 30.0465 108.444 29.7537 107.685 29.0709C106.926 28.4855 106.357 27.6074 105.978 26.6318C105.599 25.6562 105.314 24.583 105.219 23.4122C105.124 22.2415 105.03 21.1684 105.03 20.0951C105.03 19.022 105.124 17.9488 105.219 16.778C105.314 15.6073 105.599 14.5341 105.978 13.5585C106.357 12.5829 106.926 11.8024 107.685 11.1194C108.444 10.4365 109.487 10.1438 110.815 10.1438C112.143 10.1438 113.092 10.4365 113.85 11.1194C114.609 11.8024 115.178 12.5829 115.558 13.5585C115.937 14.5341 116.221 15.6073 116.316 16.778C116.411 17.9488 116.506 19.022 116.506 20.0951C116.506 21.1684 116.411 22.2415 116.316 23.4122C116.221 24.583 115.937 25.6562 115.558 26.6318C115.178 27.6074 114.609 28.388 113.85 29.0709C112.997 29.7537 112.048 30.0465 110.72 30.0465ZM110.626 28.2903C111.479 28.2903 112.238 27.9977 112.712 27.5099C113.186 27.0221 113.661 26.3391 113.85 25.5586C114.135 24.7781 114.325 23.9 114.325 22.9244C114.419 21.9488 114.419 20.9732 114.419 20.0951C114.419 19.3146 114.419 18.5342 114.325 17.5585C114.23 16.5829 114.135 15.7048 113.85 14.9243C113.566 14.0463 113.186 13.3634 112.712 12.778C112.238 12.1926 111.479 11.8999 110.626 11.8999C109.772 11.8999 109.108 12.1926 108.539 12.778C108.065 13.3634 107.685 14.0463 107.401 14.9243C107.116 15.8024 106.926 16.6805 106.926 17.5585C106.832 18.5342 106.832 19.3146 106.832 20.0951C106.832 20.9732 106.832 21.9488 106.926 22.9244C107.021 23.9 107.116 24.7781 107.401 25.5586C107.685 26.3391 108.065 27.0221 108.539 27.5099C109.108 28.0952 109.772 28.2903 110.626 28.2903Z" fill="white"/>
<path d="M129.595 10.7366V29.5661H127.698V12.4927H121.154V29.5661H119.257V10.7366H129.595Z" fill="white"/>
<path d="M143.632 29.6537C143.442 29.7512 143.253 29.8488 143.063 29.8488C142.873 29.8488 142.589 29.8488 142.399 29.8488C141.356 29.8488 140.692 29.2634 140.502 27.9951C140.028 28.6781 139.459 29.1659 138.7 29.5561C137.941 29.9463 137.183 30.0439 136.424 30.0439C135.57 30.0439 134.906 29.9463 134.337 29.6537C133.768 29.3609 133.389 29.0683 133.104 28.5805C132.82 28.1902 132.535 27.6049 132.44 27.0194C132.345 26.4341 132.25 25.7512 132.25 24.9707C132.25 23.6048 132.44 22.5316 132.914 21.7511C133.389 20.9706 134.147 20.2877 135.191 19.7999L139.079 18.0437C139.649 17.8486 139.933 17.4584 140.123 17.0681C140.312 16.6779 140.407 15.9949 140.407 15.0193C140.407 14.0437 140.123 13.2632 139.649 12.7754C139.174 12.2876 138.51 11.9949 137.657 11.9949C136.993 11.9949 136.519 12.0925 136.139 12.2876C135.76 12.4827 135.475 12.7754 135.286 13.0681C135.096 13.3608 135.001 13.751 134.906 14.1413C134.811 14.5315 134.811 14.9218 134.716 15.4096H132.82C132.82 13.6534 133.199 12.3851 134.053 11.5071C134.906 10.629 136.139 10.2388 137.657 10.2388C139.364 10.2388 140.502 10.629 141.261 11.5071C142.02 12.3851 142.304 13.6534 142.304 15.312V26.8244C142.304 27.1171 142.304 27.3122 142.304 27.5072C142.304 27.7024 142.399 27.8 142.494 27.8975C142.589 27.9951 142.684 27.9951 142.873 28.0927C143.063 28.0927 143.253 28.1902 143.537 28.1902V29.6537H143.632ZM140.407 19.4096C139.743 19.7023 139.079 19.995 138.51 20.2877C137.941 20.5804 137.372 20.8731 136.708 21.1657C135.76 21.6535 135.096 22.1413 134.716 22.6291C134.337 23.117 134.147 23.8975 134.147 24.9707C134.147 25.8487 134.337 26.6293 134.622 27.3122C135.001 27.8975 135.665 28.2878 136.613 28.2878C137.372 28.2878 138.036 28.0927 138.51 27.8C138.985 27.4097 139.364 27.0194 139.649 26.5316C139.933 26.0438 140.123 25.4585 140.218 24.8731C140.312 24.2878 140.312 23.7023 140.312 23.117V19.4096H140.407Z" fill="white"/>
<path d="M147.616 35.9952H145.719V10.7266H147.616V12.3851H147.711C148.091 11.7998 148.565 11.2144 149.229 10.8241C149.893 10.4339 150.557 10.2388 151.41 10.2388C152.643 10.2388 153.687 10.5315 154.35 11.1168C155.109 11.7022 155.678 12.4827 156.058 13.3608C156.437 14.2388 156.722 15.312 156.816 16.3852C156.911 17.4584 157.006 18.5316 157.006 19.5072C157.006 20.7755 156.911 22.0438 156.816 23.3121C156.722 24.5804 156.437 25.6535 156.058 26.7268C155.678 27.7024 155.109 28.4829 154.445 29.1659C153.686 29.7512 152.738 30.0439 151.505 30.0439C149.893 30.0439 148.66 29.3609 147.711 27.9951V35.9952H147.616ZM151.315 11.9949C150.462 11.9949 149.798 12.2876 149.229 12.7754C148.754 13.2632 148.375 13.9461 148.091 14.7266C147.806 15.5071 147.711 16.3852 147.616 17.2632C147.521 18.1413 147.521 19.0194 147.521 19.7023C147.521 20.5804 147.521 21.556 147.616 22.5316C147.711 23.5072 147.806 24.4828 148.091 25.2634C148.375 26.1415 148.66 26.8243 149.134 27.3122C149.608 27.8975 150.272 28.0927 151.126 28.0927C151.979 28.0927 152.643 27.8975 153.117 27.4097C153.592 26.9219 153.971 26.3365 154.256 25.556C154.54 24.7756 154.73 23.8975 154.825 22.8243C154.92 21.7511 154.919 20.6779 154.919 19.6047C154.919 18.8242 154.92 18.0437 154.825 17.1657C154.73 16.2876 154.635 15.4096 154.35 14.6291C154.066 13.8486 153.686 13.1656 153.212 12.6778C152.833 12.2876 152.169 11.9949 151.315 11.9949Z" fill="white"/>
<path d="M161.558 19.6147L167.534 10.7366H169.905L164.973 17.7611L170 29.5661H168.008L163.55 19.8099L161.558 22.7367V29.6637H159.661V10.7366H161.558V19.6147Z" fill="white"/>
<path d="M0.184692 52.9413H8.01519V50.9105H2.43247V48.7314H7.28062V46.7006H2.43247V44.5957H7.94173V42.5648H0.184692V52.9413ZM10.0267 52.9413H12.2598V46.3448L17.2402 52.9413H19.1648V42.5648H16.9317V48.9538L12.1129 42.5648H10.0267V52.9413ZM23.9695 53.0896C25.086 53.0896 26.0116 52.7634 26.6433 52.126C27.2603 51.5034 27.6129 50.5844 27.6129 49.354V42.5648H25.2917V49.2503C25.2917 50.451 24.7628 50.9698 23.9107 50.9698C23.1908 50.9698 22.6179 50.5844 22.0302 49.9321L20.6052 51.5331C21.3103 52.378 22.3681 53.0896 23.9695 53.0896ZM34.9212 53.1192C38.0945 53.1192 40.401 50.703 40.401 47.7531C40.401 44.7736 38.1239 42.387 34.9505 42.387C31.7772 42.387 29.4707 44.8032 29.4707 47.7531C29.4707 50.7326 31.7478 53.1192 34.9212 53.1192ZM34.9505 51.0143C33.1288 51.0143 31.836 49.5319 31.836 47.7531C31.836 45.9446 33.0994 44.4919 34.9212 44.4919C36.7429 44.4919 38.0357 45.9743 38.0357 47.7531C38.0357 49.5616 36.7723 51.0143 34.9505 51.0143ZM44.427 52.9413H46.6895V48.8056L50.6414 42.5648H48.0704L45.5729 46.7303L43.1195 42.5648H40.475L44.427 48.85V52.9413ZM59.3479 52.9413H61.6104V48.8056L65.5624 42.5648H62.9914L60.4939 46.7303L58.0404 42.5648H55.396L59.3479 48.85V52.9413ZM71.09 53.1192C74.2634 53.1192 76.5699 50.703 76.5699 47.7531C76.5699 44.7736 74.2927 42.387 71.1194 42.387C67.9461 42.387 65.6395 44.8032 65.6395 47.7531C65.6395 50.7326 67.9167 53.1192 71.09 53.1192ZM71.1194 51.0143C69.2977 51.0143 68.0048 49.5319 68.0048 47.7531C68.0048 45.9446 69.2683 44.4919 71.09 44.4919C72.9117 44.4919 74.2046 45.9743 74.2046 47.7531C74.2046 49.5616 72.9411 51.0143 71.1194 51.0143ZM82.8667 53.1044C85.6287 53.1044 87.377 51.5627 87.377 48.4201V42.5648H85.1145V48.5091C85.1145 50.1545 84.2771 50.9994 82.8961 50.9994C81.5151 50.9994 80.6777 50.1248 80.6777 48.435V42.5648H78.4152V48.4943C78.4152 51.5479 80.1047 53.1044 82.8667 53.1044ZM89.6815 52.9413H91.944V49.6208H93.6923L95.9253 52.9413H98.5698L96.0576 49.2354C97.3651 48.7463 98.2613 47.6938 98.2613 46.0187C98.2613 45.0107 97.9528 44.1954 97.3798 43.6173C96.704 42.9354 95.6903 42.5648 94.3827 42.5648H89.6815V52.9413ZM91.944 47.6048V44.6253H94.1918C95.2936 44.6253 95.9694 45.1293 95.9694 46.1077C95.9694 47.0119 95.3377 47.6048 94.2358 47.6048H91.944ZM109.654 53.1192C111.535 53.1192 112.989 52.378 114.047 51.4738V46.9674H109.581V48.939H111.858V50.4213C111.285 50.8364 110.55 51.0439 109.728 51.0439C107.906 51.0439 106.613 49.6505 106.613 47.7531C106.613 45.9594 107.921 44.4919 109.566 44.4919C110.756 44.4919 111.461 44.8773 112.255 45.5444L113.68 43.81C112.607 42.891 111.491 42.387 109.64 42.387C106.525 42.387 104.248 44.8032 104.248 47.7531C104.248 50.8512 106.451 53.1192 109.654 53.1192ZM115.342 52.9413H117.648L118.589 50.614H122.937L123.878 52.9413H126.243L121.835 42.4907H119.749L115.342 52.9413ZM119.397 48.598L120.763 45.2331L122.129 48.598H119.397ZM127.831 52.9413H130.093V49.6208H131.841L134.074 52.9413H136.719L134.207 49.2354C135.514 48.7463 136.41 47.6938 136.41 46.0187C136.41 45.0107 136.102 44.1954 135.529 43.6173C134.853 42.9354 133.839 42.5648 132.532 42.5648H127.831V52.9413ZM130.093 47.6048V44.6253H132.341C133.443 44.6253 134.118 45.1293 134.118 46.1077C134.118 47.0119 133.487 47.6048 132.385 47.6048H130.093ZM138.447 52.9413H142.458C145.69 52.9413 147.923 50.6733 147.923 47.7531C147.923 44.8032 145.69 42.5648 142.458 42.5648H138.447V52.9413ZM140.71 50.8808V44.6253H142.458C144.309 44.6253 145.558 45.915 145.558 47.7531C145.558 49.6208 144.309 50.8808 142.458 50.8808H140.71ZM149.939 52.9413H157.769V50.9105H152.187V48.7314H157.035V46.7006H152.187V44.5957H157.696V42.5648H149.939V52.9413ZM159.781 52.9413H162.014V46.3448L166.995 52.9413H168.919V42.5648H166.686V48.9538L161.867 42.5648H159.781V52.9413Z" fill="#8C8C8C"/>
</g>
<defs>
<clipPath id="clip0_298_3550">
<rect width="170" height="54" fill="white"/>
</clipPath>
</defs>
</svg>
