<svg width="166" height="165" viewBox="0 0 166 165" fill="none" xmlns="http://www.w3.org/2000/svg">
<circle cx="82.9457" cy="82.6981" r="60" transform="rotate(120.878 82.9457 82.6981)" fill="#F9F4EA"/>
<circle cx="83.04" cy="83.4296" r="53.5" transform="rotate(32.023 83.04 83.4296)" stroke="#1E1E1E"/>
<path d="M109.927 114.793C109.693 115.085 109.588 115.407 109.612 115.759C109.636 116.11 109.784 116.439 110.057 116.746C110.451 117.188 110.929 117.406 111.491 117.399C112.049 117.397 112.579 117.172 113.084 116.723C113.578 116.283 113.863 115.802 113.938 115.279C114.013 114.755 113.87 114.202 113.509 113.619L112.46 114.231C112.652 114.572 112.741 114.871 112.726 115.127C112.706 115.387 112.574 115.626 112.329 115.843C112.095 116.051 111.85 116.153 111.594 116.148C111.342 116.148 111.124 116.044 110.939 115.836C110.74 115.612 110.64 115.38 110.639 115.138C110.633 114.901 110.724 114.699 110.911 114.533L111.684 113.845L110.983 113.057L110.21 113.744C110.023 113.911 109.812 113.978 109.577 113.944C109.342 113.921 109.125 113.797 108.926 113.573C108.741 113.365 108.66 113.134 108.685 112.879C108.715 112.629 108.846 112.4 109.08 112.192C109.325 111.974 109.589 111.884 109.873 111.92C110.152 111.961 110.473 112.123 110.836 112.405L111.573 111.442C110.989 110.964 110.419 110.716 109.863 110.699C109.311 110.686 108.788 110.9 108.294 111.34C107.79 111.788 107.504 112.29 107.437 112.843C107.365 113.401 107.526 113.901 107.919 114.343C108.192 114.65 108.502 114.836 108.848 114.9C109.195 114.965 109.527 114.898 109.844 114.7L109.927 114.793Z" fill="#1E1E1E"/>
<path d="M106.434 116.785L103.673 118.496L103.051 117.493L105.812 115.782L106.434 116.785ZM106.44 119.472L105.179 114.185L106.341 113.464L107.977 120.486L106.352 121.492L100.775 116.913L101.929 116.198L106.129 119.665L106.535 120.101L106.65 120.03L106.44 119.472Z" fill="#1E1E1E"/>
<path d="M102.353 123.754L101.176 124.211L100.057 121.33L98.5372 125.236L97.0769 125.803L98.4624 121.926L94.6052 119.435L96.1921 118.819L99.0871 120.765L99.49 119.869L98.7039 117.844L99.8819 117.387L102.353 123.754Z" fill="#1E1E1E"/>
<path d="M93.172 122.766L89.9801 123.366L89.7619 122.207L92.9538 121.606L93.172 122.766ZM92.2092 125.274L92.9387 119.888L94.2832 119.635L93.2775 126.774L91.3993 127.127L87.8481 120.845L89.1824 120.594L91.85 125.342L92.071 125.895L92.2044 125.87L92.2092 125.274Z" fill="#1E1E1E"/>
<path d="M83.5216 124.466C83.1536 124.534 82.8637 124.709 82.6521 124.991C82.4404 125.273 82.3375 125.619 82.3436 126.029C82.3524 126.621 82.5718 127.098 83.0019 127.461C83.425 127.824 83.9742 128 84.6495 127.99C85.3108 127.98 85.8408 127.802 86.2396 127.455C86.6383 127.108 86.8918 126.596 87.0002 125.919L85.8063 125.696C85.7284 126.08 85.6003 126.364 85.4219 126.548C85.2367 126.732 84.9804 126.826 84.6532 126.831C84.34 126.835 84.0881 126.752 83.8975 126.581C83.7071 126.417 83.6098 126.195 83.6057 125.917C83.6013 125.617 83.6778 125.376 83.8353 125.193C83.9857 125.009 84.1863 124.916 84.4369 124.912L85.4707 124.897L85.4551 123.842L84.4213 123.858C84.1707 123.861 83.9675 123.774 83.8117 123.595C83.649 123.423 83.5654 123.188 83.561 122.889C83.5569 122.61 83.6475 122.382 83.8329 122.206C84.0184 122.036 84.2678 121.949 84.5811 121.944C84.9082 121.939 85.1674 122.043 85.3586 122.256C85.5427 122.469 85.6799 122.802 85.7702 123.253L86.9572 123.006C86.8278 122.262 86.5584 121.702 86.149 121.325C85.7397 120.955 85.2044 120.775 84.543 120.785C83.8678 120.795 83.324 120.988 82.9118 121.363C82.4926 121.738 82.2874 122.222 82.2961 122.813C82.3022 123.224 82.4152 123.567 82.6351 123.842C82.855 124.117 83.1499 124.284 83.5198 124.341L83.5216 124.466Z" fill="#1E1E1E"/>
<path d="M79.6026 123.686L76.3943 123.18L76.5781 122.014L79.7863 122.52L79.6026 123.686ZM77.8539 125.725L80.3489 120.896L81.7003 121.109L78.3571 127.496L76.4693 127.199L75.2322 120.089L76.5733 120.301L77.4928 125.668L77.5152 126.264L77.6493 126.285L77.8539 125.725Z" fill="#1E1E1E"/>
<path d="M72.1041 126.351L67.0839 124.572L67.4781 123.459L69.3976 124.14L71.2848 118.814L72.4758 119.236L70.5886 124.562L72.4983 125.239L72.1041 126.351Z" fill="#1E1E1E"/>
<path d="M65.1833 120.65L63.9735 119.967C63.3185 119.598 62.8849 119.134 62.6727 118.575C62.4545 118.012 62.4975 117.461 62.8018 116.921C63.0993 116.393 63.528 116.08 64.0879 115.98C64.6417 115.876 65.237 116.004 65.8738 116.363L68.2845 117.723L64.9299 123.672L63.8292 123.051L65.1833 120.65ZM66.599 118.139L65.3891 117.457C64.6614 117.046 64.159 117.087 63.8821 117.578C63.7555 117.802 63.7547 118.038 63.8796 118.284C63.9985 118.527 64.2459 118.754 64.6219 118.966L65.7681 119.613L66.599 118.139Z" fill="#1E1E1E"/>
<path d="M55.7017 112.562C55.4809 112.26 55.3903 111.933 55.4299 111.583C55.4694 111.233 55.6325 110.911 55.919 110.617C56.3317 110.192 56.8189 109.996 57.3806 110.028C57.9373 110.055 58.4577 110.304 58.9417 110.775C59.4157 111.236 59.6784 111.73 59.7298 112.256C59.7813 112.782 59.6139 113.328 59.2277 113.895L58.207 113.237C58.4142 112.904 58.5161 112.61 58.5126 112.354C58.5041 112.093 58.3826 111.848 58.1481 111.62C57.9236 111.402 57.6833 111.289 57.4272 111.283C57.176 111.272 56.9532 111.366 56.759 111.565C56.5502 111.78 56.44 112.008 56.4285 112.249C56.4121 112.486 56.4936 112.691 56.6732 112.866L57.4142 113.587L56.6785 114.343L55.9376 113.622C55.758 113.447 55.5502 113.371 55.3142 113.394C55.078 113.407 54.8555 113.521 54.6467 113.736C54.4525 113.935 54.362 114.163 54.3754 114.419C54.3935 114.67 54.5149 114.904 54.7394 115.123C54.9739 115.351 55.2338 115.453 55.519 115.43C55.7993 115.401 56.1272 115.254 56.5027 114.988L57.1956 115.983C56.5912 116.434 56.0108 116.656 55.4543 116.649C54.9028 116.637 54.39 116.4 53.916 115.939C53.432 115.468 53.169 114.955 53.127 114.399C53.08 113.838 53.2629 113.346 53.6756 112.922C53.9621 112.627 54.2798 112.456 54.6287 112.406C54.9776 112.357 55.3061 112.439 55.6142 112.652L55.7017 112.562Z" fill="#1E1E1E"/>
<path d="M54.2235 108.179L53.3955 107.064C52.8975 106.393 52.4332 106.217 52.0028 106.537C51.5612 106.865 51.5894 107.364 52.0875 108.035L52.9155 109.15L54.2235 108.179ZM51.9596 109.86L51.1316 108.744C50.6792 108.135 50.2294 107.997 49.7823 108.329C49.5587 108.495 49.4505 108.688 49.4578 108.908C49.4554 109.126 49.5745 109.398 49.8152 109.722L50.6432 110.837L51.9596 109.86ZM50.9554 107.614L51.0644 107.533C50.8673 107.115 50.8052 106.711 50.8781 106.318C50.9412 105.925 51.1349 105.607 51.4591 105.367C51.8784 105.055 52.3452 104.977 52.8597 105.133C53.3685 105.293 53.8429 105.669 54.2829 106.262L55.9327 108.484L50.4491 112.555L48.7993 110.333C48.3593 109.741 48.1496 109.19 48.1702 108.68C48.1907 108.171 48.419 107.754 48.855 107.43C49.1848 107.185 49.537 107.076 49.9114 107.101C50.2803 107.131 50.6282 107.302 50.9554 107.614Z" fill="#1E1E1E"/>
<path d="M46.8721 104.329C47.3799 104.408 47.9725 104.277 48.6499 103.935C49.3211 103.596 49.7757 103.198 50.0136 102.743C50.2484 102.281 50.2465 101.814 50.008 101.342C49.7664 100.863 49.3947 100.583 48.8931 100.501C48.3853 100.422 47.7926 100.554 47.1152 100.896C46.4378 101.238 45.9802 101.637 45.7422 102.092C45.4981 102.551 45.4969 103.019 45.7385 103.498C45.977 103.97 46.3549 104.247 46.8721 104.329ZM49.2196 105.063C48.2066 105.574 47.2934 105.735 46.48 105.545C45.6665 105.355 45.0558 104.857 44.6478 104.049C44.265 103.291 44.2385 102.512 44.5685 101.714C44.8922 100.919 45.5513 100.27 46.5456 99.7677C47.5648 99.253 48.4811 99.0905 49.2946 99.2803C50.0986 99.4671 50.7062 99.9675 51.1173 100.782C51.5253 101.59 51.5674 102.376 51.2435 103.14C50.9134 103.907 50.2388 104.548 49.2196 105.063Z" fill="#1E1E1E"/>
<path d="M42.8248 99.7046L42.4605 98.4946L45.1005 97.6998L44.2906 95.0098L41.6507 95.8047L41.2834 94.5847L47.8233 92.6157L48.1906 93.8357L45.4306 94.6666L46.2405 97.3566L49.0005 96.5257L49.3648 97.7357L42.8248 99.7046Z" fill="#1E1E1E"/>
<path d="M42.2462 90.7766C42.6977 91.022 43.3 91.0979 44.0531 91.0041C44.7992 90.9112 45.3611 90.6904 45.7386 90.3417C46.1153 89.9861 46.271 89.5458 46.2056 89.0207C46.1394 88.4888 45.8839 88.0996 45.4393 87.8533C44.9878 87.6078 44.3855 87.5319 43.6324 87.6257C42.8794 87.7195 42.3141 87.9407 41.9365 88.2894C41.5521 88.6389 41.393 89.0797 41.4592 89.6117C41.5246 90.1368 41.7869 90.5251 42.2462 90.7766ZM44.2092 92.2581C43.0831 92.3983 42.1691 92.242 41.4672 91.7892C40.7654 91.3363 40.3585 90.6608 40.2467 89.7627C40.1417 88.9198 40.3792 88.1781 40.9589 87.5376C41.5318 86.898 42.3709 86.5094 43.4763 86.3717C44.6094 86.2307 45.5268 86.3866 46.2287 86.8394C46.9228 87.2862 47.3261 87.9621 47.4388 88.8672C47.5506 89.7653 47.3253 90.5195 46.7629 91.1298C46.1935 91.7409 45.3423 92.117 44.2092 92.2581Z" fill="#1E1E1E"/>
<path d="M39.9955 85.0855L40.0549 83.8232L43.1427 83.9685L40.1879 80.9962L40.2615 79.4315L43.2436 82.2691L47.0839 79.7524L47.0039 81.4528L44.0518 83.3108L44.7075 84.0421L46.8773 84.1442L46.8179 85.4064L39.9955 85.0855Z" fill="#1E1E1E"/>
<path d="M56.1165 54.796C56.3368 54.4934 56.4269 54.1671 56.3868 53.8171C56.3467 53.467 56.1831 53.145 55.8962 52.8511C55.4828 52.4277 54.9953 52.2322 54.4336 52.2649C53.8769 52.2926 53.357 52.5424 52.8737 53.0142C52.4005 53.4762 52.1385 53.9703 52.0879 54.4965C52.0372 55.0227 52.2055 55.5688 52.5925 56.1347L53.6122 55.4749C53.4045 55.1425 53.3022 54.8484 53.3053 54.5924C53.3133 54.3315 53.4344 54.0868 53.6686 53.8582C53.8928 53.6394 54.1329 53.5266 54.389 53.5198C54.6402 53.5081 54.8631 53.6018 55.0577 53.8011C55.2668 54.0153 55.3773 54.2431 55.3891 54.4845C55.406 54.721 55.3247 54.9268 55.1454 55.1019L54.4056 55.8241L55.1424 56.5789L55.8822 55.8567C56.0616 55.6816 56.2693 55.6053 56.5053 55.6278C56.7415 55.6405 56.9641 55.754 57.1733 55.9682C57.3678 56.1675 57.4586 56.395 57.4457 56.6509C57.4279 56.9018 57.3069 57.1366 57.0827 57.3555C56.8486 57.5841 56.5889 57.6868 56.3036 57.6637C56.0233 57.6357 55.6952 57.489 55.3193 57.2235L54.6279 58.2196C55.233 58.67 55.8137 58.8911 56.3702 58.883C56.9217 58.87 57.4342 58.6324 57.9074 58.1704C58.3907 57.6986 58.6529 57.1848 58.694 56.629C58.7402 56.0683 58.5565 55.5762 58.1431 55.1527C57.8562 54.8588 57.5382 54.6876 57.1892 54.6391C56.8403 54.5906 56.5119 54.6728 56.2041 54.8857L56.1165 54.796Z" fill="#1E1E1E"/>
<path d="M59.5403 52.618L62.2201 50.783L62.8869 51.7566L60.2071 53.5917L59.5403 52.618ZM59.4114 49.9343L60.913 55.1587L59.7842 55.9316L57.8297 48.9923L59.4066 47.9125L65.187 52.2321L64.0668 52.9992L59.713 49.7278L59.2878 49.3102L59.1758 49.3869L59.4114 49.9343Z" fill="#1E1E1E"/>
<path d="M63.3003 45.4591L64.4567 44.9495L65.7033 47.7782L67.0465 43.8082L68.48 43.1765L67.2694 47.1109L71.2342 49.4264L69.6765 50.1129L66.6973 48.2988L66.335 49.2117L67.2109 51.1994L66.0546 51.709L63.3003 45.4591Z" fill="#1E1E1E"/>
<path d="M72.3147 46.0783L75.4744 45.3267L75.7475 46.4747L72.5878 47.2264L72.3147 46.0783ZM73.157 43.5271L72.6847 48.9424L71.3538 49.259L72.0185 42.0803L73.8777 41.6381L77.724 47.7436L76.4032 48.0578L73.5126 43.4425L73.2655 42.9001L73.1334 42.9315L73.157 43.5271Z" fill="#1E1E1E"/>
<path d="M81.8732 43.8968C82.2376 43.8114 82.5189 43.6231 82.717 43.3317C82.9152 43.0404 83.0015 42.6898 82.9761 42.2798C82.9394 41.6891 82.6977 41.2228 82.2509 40.8809C81.8111 40.5385 81.2542 40.3882 80.5802 40.43C79.9201 40.471 79.399 40.6743 79.0171 41.0398C78.6353 41.4053 78.4062 41.9287 78.3299 42.6101L79.533 42.7761C79.5927 42.3887 79.7072 42.0991 79.8767 41.9072C80.0531 41.7149 80.3046 41.6086 80.6312 41.5883C80.9439 41.5689 81.1994 41.6402 81.3978 41.8023C81.5958 41.9574 81.7034 42.1739 81.7207 42.4519C81.7392 42.7507 81.6742 42.9954 81.5256 43.186C81.3839 43.3761 81.188 43.479 80.9379 43.4945L79.906 43.5586L79.9713 44.6113L81.0032 44.5473C81.2534 44.5317 81.4605 44.6096 81.6246 44.7807C81.7952 44.9445 81.8898 45.1758 81.9084 45.4746C81.9256 45.7526 81.8458 45.9843 81.669 46.1696C81.4917 46.348 81.2468 46.447 80.9341 46.4664C80.6075 46.4867 80.3437 46.3949 80.1427 46.1911C79.9486 45.987 79.7959 45.6616 79.6845 45.2151L78.5105 45.5182C78.6747 46.2544 78.9703 46.8011 79.397 47.1582C79.8234 47.5084 80.3666 47.6631 81.0267 47.6221C81.7008 47.5802 82.2348 47.3622 82.6289 46.968C83.0299 46.5734 83.2121 46.0808 83.1754 45.4901C83.1499 45.0802 83.0209 44.7429 82.7882 44.4783C82.5555 44.2137 82.2531 44.0616 81.8809 44.0219L81.8732 43.8968Z" fill="#1E1E1E"/>
<path d="M85.8247 44.4669L89.0533 44.8199L88.9251 45.993L85.6965 45.64L85.8247 44.4669ZM87.4747 42.3466L85.2115 47.2889L83.8516 47.1402L86.8881 40.6016L88.7879 40.8093L90.3607 47.8518L89.0112 47.7043L87.8381 42.3863L87.7874 41.7925L87.6525 41.7777L87.4747 42.3466Z" fill="#1E1E1E"/>
<path d="M93.1633 41.4151L98.2634 42.9501L97.9233 44.0801L95.9733 43.4932L94.345 48.9033L93.135 48.5392L94.7633 43.129L92.8232 42.5451L93.1633 41.4151Z" fill="#1E1E1E"/>
<path d="M100.302 46.7228L101.544 47.3446C102.217 47.6813 102.672 48.1237 102.912 48.6718C103.157 49.223 103.142 49.7757 102.864 50.3298C102.593 50.8714 102.18 51.2058 101.626 51.3332C101.078 51.4636 100.477 51.3652 99.8234 51.0379L97.3488 49.7989L100.407 43.6917L101.537 44.2575L100.302 46.7228ZM99.0117 49.3001L100.254 49.9219C101.001 50.296 101.5 50.2309 101.753 49.7266C101.868 49.4963 101.858 49.2612 101.721 49.0214C101.59 48.7847 101.332 48.5697 100.946 48.3764L99.7692 47.7873L99.0117 49.3001Z" fill="#1E1E1E"/>
<path d="M110.911 54.3994C111.229 54.5969 111.561 54.6629 111.907 54.5972C112.253 54.5316 112.562 54.3449 112.834 54.0372C113.226 53.5939 113.386 53.0934 113.312 52.5356C113.243 51.9825 112.956 51.4822 112.45 51.0348C111.955 50.5967 111.443 50.3716 110.914 50.3597C110.386 50.3477 109.854 50.5555 109.318 50.9829L110.05 51.9516C110.367 51.7201 110.653 51.5965 110.908 51.5808C111.169 51.5697 111.422 51.6726 111.667 51.8893C111.902 52.0969 112.032 52.3281 112.057 52.583C112.087 52.8327 112.01 53.0619 111.826 53.2705C111.627 53.4948 111.408 53.6217 111.168 53.6512C110.934 53.6853 110.722 53.6194 110.535 53.4533L109.76 52.7684L109.061 53.5585L109.836 54.2434C110.024 54.4095 110.115 54.611 110.11 54.8481C110.114 55.0846 110.018 55.3149 109.819 55.5392C109.635 55.7478 109.414 55.855 109.158 55.8609C108.907 55.8615 108.664 55.7581 108.429 55.5505C108.184 55.3338 108.062 55.0823 108.065 54.7961C108.072 54.5145 108.194 54.1765 108.432 53.7822L107.387 53.1656C106.983 53.802 106.805 54.3974 106.853 54.9518C106.907 55.5009 107.181 55.9946 107.677 56.4327C108.183 56.8801 108.714 57.104 109.272 57.1043C109.834 57.1092 110.312 56.89 110.704 56.4467C110.976 56.139 111.123 55.8094 111.146 55.4578C111.169 55.1062 111.063 54.7847 110.828 54.4933L110.911 54.3994Z" fill="#1E1E1E"/>
<path d="M112.046 58.7493L112.925 59.8252C113.453 60.4723 113.925 60.6263 114.34 60.2873C114.766 59.9394 114.715 59.4419 114.187 58.7948L113.308 57.7189L112.046 58.7493ZM114.23 56.9659L115.109 58.0418C115.589 58.6296 116.044 58.7473 116.476 58.3951C116.692 58.2189 116.791 58.0211 116.773 57.8017C116.766 57.5832 116.634 57.3175 116.379 57.0048L115.5 55.9289L114.23 56.9659ZM115.337 59.1633L115.232 59.2491C115.448 59.6569 115.529 60.0584 115.474 60.4537C115.429 60.85 115.25 61.1758 114.937 61.4312C114.533 61.7614 114.07 61.8607 113.549 61.7289C113.033 61.5927 112.542 61.2388 112.075 60.6671L110.325 58.5235L115.615 54.2037L117.365 56.3474C117.832 56.919 118.067 57.4598 118.07 57.9697C118.073 58.4797 117.864 58.9064 117.443 59.2498C117.125 59.5096 116.779 59.6354 116.403 59.6272C116.033 59.6146 115.678 59.46 115.337 59.1633Z" fill="#1E1E1E"/>
<path d="M119.566 62.2199C119.055 62.164 118.469 62.3223 117.807 62.6947C117.152 63.0637 116.716 63.4811 116.499 63.947C116.285 64.4189 116.308 64.8854 116.568 65.3464C116.831 65.8135 117.215 66.0767 117.72 66.1359C118.231 66.1918 118.817 66.0335 119.478 65.6611C120.139 65.2887 120.579 64.8695 120.796 64.4037C121.019 63.9344 120.999 63.4662 120.736 62.9991C120.476 62.5381 120.086 62.2783 119.566 62.2199ZM117.187 61.5937C118.176 61.0368 119.081 60.8347 119.902 60.9875C120.723 61.1402 121.356 61.6109 121.8 62.3995C122.217 63.1396 122.279 63.9159 121.985 64.7284C121.698 65.5375 121.069 66.2154 120.098 66.7621C119.103 67.3224 118.195 67.5262 117.374 67.3735C116.563 67.2233 115.933 66.751 115.485 65.9563C115.041 65.1677 114.964 64.3844 115.252 63.6064C115.548 62.8249 116.192 62.154 117.187 61.5937Z" fill="#1E1E1E"/>
<path d="M123.823 66.619L124.245 67.81L121.646 68.7309L122.585 71.3788L125.183 70.458L125.609 71.6589L119.171 73.9401L118.746 72.7392L121.462 71.7765L120.524 69.1285L117.807 70.0913L117.385 68.9002L123.823 66.619Z" fill="#1E1E1E"/>
<path d="M124.867 75.6366C124.405 75.4112 123.8 75.3617 123.052 75.4884C122.31 75.6138 121.759 75.859 121.397 76.2239C121.036 76.5956 120.9 77.0423 120.988 77.564C121.077 78.0926 121.35 78.4702 121.805 78.6969C122.266 78.9223 122.872 78.9718 123.62 78.8451C124.368 78.7185 124.923 78.4728 125.285 78.1079C125.654 77.7418 125.793 77.2945 125.704 76.766C125.616 76.2443 125.337 75.8678 124.867 75.6366ZM122.841 74.2424C123.96 74.0531 124.88 74.1692 125.601 74.5909C126.322 75.0126 126.758 75.6697 126.909 76.5621C127.05 77.3996 126.846 78.1509 126.295 78.8162C125.75 79.4802 124.929 79.9052 123.831 80.0911C122.705 80.2816 121.781 80.166 121.06 79.7443C120.347 79.3283 119.915 78.6707 119.763 77.7714C119.612 76.879 119.804 76.1157 120.339 75.4814C120.881 74.8459 121.715 74.4329 122.841 74.2424Z" fill="#1E1E1E"/>
<path d="M127.369 80.998L127.369 82.2616L124.278 82.2623L127.37 85.0917L127.37 86.6582L124.258 83.9646L120.54 86.6599L120.54 84.9576L123.401 82.9622L122.712 82.2627L120.539 82.2632L120.539 80.9996L127.369 80.998Z" fill="#1E1E1E"/>
<g clip-path="url(#clip0_483_11304)">
<path d="M96.7521 88.7972L92.9842 85.3084C91.6385 84.0624 89.3509 84.5608 88.8126 86.1806C88.4089 87.302 87.0632 87.925 85.8521 87.6758C83.1607 87.0528 79.5273 83.8132 78.8545 81.1965C78.4508 80.0751 79.2582 78.8291 80.4693 78.4553C82.2187 77.9569 82.757 75.8387 81.4113 74.5927L77.6434 71.1039C76.5668 70.2317 74.952 70.2317 74.01 71.1039L71.4532 73.4713C68.8964 75.9633 71.7223 82.5671 78.0471 88.4234C84.3718 94.2796 91.504 97.0209 94.1953 94.5288L96.7521 92.1614C97.6942 91.1646 97.6942 89.6694 96.7521 88.7972Z" fill="#1E1E1E"/>
</g>
<defs>
<clipPath id="clip0_483_11304">
<rect width="27" height="25" fill="white" transform="translate(70.4871 70.4497)"/>
</clipPath>
</defs>
</svg>
