<svg width="9" height="10" viewBox="0 0 9 10" fill="none" xmlns="http://www.w3.org/2000/svg">
<path fill-rule="evenodd" clip-rule="evenodd" d="M0.5625 8.94737H8.4375C8.58668 8.94737 8.72976 9.00282 8.83525 9.10152C8.94074 9.20023 9 9.3341 9 9.47368C9 9.61327 8.94074 9.74714 8.83525 9.84585C8.72976 9.94455 8.58668 10 8.4375 10H0.5625C0.413316 10 0.270242 9.94455 0.164753 9.84585C0.0592633 9.74714 0 9.61327 0 9.47368C0 9.3341 0.0592633 9.20023 0.164753 9.10152C0.270242 9.00282 0.413316 8.94737 0.5625 8.94737ZM5.0625 5.88158L6.88669 4.17526L7.68206 4.91947L4.5 7.89684L1.31794 4.91947L2.11331 4.17526L3.9375 5.88158V0H5.0625V5.88158Z" fill="white"/>
</svg>
