<svg width="198" height="199" viewBox="0 0 198 199" fill="none" xmlns="http://www.w3.org/2000/svg">
<circle cx="99.5244" cy="98.9813" r="70.3037" transform="rotate(32.023 99.5244 98.9813)" fill="#1E1E1E"/>
<circle cx="99.6351" cy="99.8382" r="62.7733" transform="rotate(32.023 99.6351 99.8382)" stroke="#F9F4EA"/>
<circle cx="60.3659" cy="75.6292" r="2.34346" transform="rotate(32.023 60.3659 75.6292)" fill="#F9F4EA"/>
<circle cx="140.043" cy="124.842" r="2.34346" transform="rotate(32.023 140.043 124.842)" fill="#F9F4EA"/>
<path d="M79.2615 61.3493L86.9185 59.166L89.8207 69.3442L87.922 69.8856L85.5257 61.4815L81.6505 62.5865L84.0468 70.9906L82.1636 71.5275L79.2615 61.3493Z" fill="#F9F4EA"/>
<path d="M90.777 57.3803L98.545 57.3705L98.5473 59.2154L92.7375 59.2227L92.7407 61.7473L98.2268 61.7404L98.2292 63.5853L92.743 63.5922L92.7462 66.1168L98.556 66.1095L98.5583 67.9544L90.7903 67.9642L90.777 57.3803Z" fill="#F9F4EA"/>
<path d="M101.992 67.4374L104.863 57.2501L108.819 58.3649C109.878 58.6633 110.653 59.2177 111.142 60.028C111.641 60.8413 111.752 61.7412 111.474 62.7277C111.208 63.6727 110.659 64.3475 109.827 64.7522C108.999 65.1465 108.05 65.1929 106.98 64.8916L104.909 64.3079L103.877 67.9684L101.992 67.4374ZM105.405 62.5477L107.321 63.0875C107.912 63.2543 108.404 63.2584 108.797 63.0999C109.192 62.931 109.455 62.6128 109.587 62.1455C109.727 61.6471 109.673 61.2227 109.424 60.8724C109.189 60.5146 108.77 60.2509 108.168 60.0812L106.252 59.5413L105.405 62.5477Z" fill="#F9F4EA"/>
<path d="M117.271 60.3377L123.903 64.3819L122.943 65.9571L117.982 62.9324L116.668 65.0878L121.352 67.944L120.391 69.5192L115.707 66.663L114.393 68.8185L119.353 71.8432L118.393 73.4183L111.761 69.3742L117.271 60.3377Z" fill="#F9F4EA"/>
<path d="M135.414 69.3694C135.198 69.5645 134.945 69.6546 134.655 69.6397C134.373 69.6328 134.134 69.5212 133.939 69.3049C133.744 69.0886 133.654 68.8357 133.669 68.5462C133.691 68.2647 133.81 68.0264 134.027 67.8313L133.051 66.7498C132.602 67.1545 132.385 67.6703 132.398 68.2974C132.42 68.9173 132.669 69.4916 133.146 70.0203C133.623 70.5491 134.169 70.856 134.783 70.9411C135.406 71.019 135.941 70.8556 136.39 70.4509L135.414 69.3694ZM130.883 68.7924L125.176 73.9413L133.713 71.9287L135.404 73.8033L127.545 80.8926L126.233 79.4386L131.965 74.2679L123.404 76.3022L121.702 74.4156L129.561 67.3263L130.883 68.7924Z" fill="#F9F4EA"/>
<path d="M138.661 78.3451L142.231 85.7865L140.582 86.5775L139.217 83.7323L131.323 87.5195L130.476 85.754L138.37 81.9668L137.012 79.1361L138.661 78.3451Z" fill="#F9F4EA"/>
<path d="M144.101 92.5749L136.507 93.7659L144.756 96.7478L145.147 99.2419L134.691 100.882L134.387 98.9471L142.013 97.7512L133.733 94.7743L133.339 92.2641L143.795 90.6244L144.101 92.5749Z" fill="#F9F4EA"/>
<path d="M122.077 139.666L114.402 141.785L111.585 131.583L113.488 131.058L115.814 139.482L119.698 138.409L117.373 129.985L119.26 129.464L122.077 139.666Z" fill="#F9F4EA"/>
<path d="M109.386 143.656L101.618 143.601L101.631 141.756L107.441 141.798L107.459 139.273L101.973 139.234L101.986 137.389L107.472 137.428L107.49 134.904L101.68 134.862L101.693 133.018L109.461 133.073L109.386 143.656Z" fill="#F9F4EA"/>
<path d="M99.4263 133.643L96.4709 143.806L92.5238 142.658C91.4671 142.351 90.6976 141.79 90.2154 140.976C89.7227 140.158 89.6195 139.257 89.9057 138.273C90.1799 137.331 90.7343 136.66 91.5691 136.263C92.4008 135.875 93.3502 135.837 94.4173 136.147L96.484 136.748L97.546 133.096L99.4263 133.643ZM95.9734 138.504L94.062 137.948C93.4715 137.777 92.9795 137.768 92.5861 137.924C92.1896 138.089 91.9236 138.405 91.788 138.871C91.6434 139.369 91.694 139.793 91.9398 140.146C92.1723 140.505 92.589 140.773 93.1898 140.947L95.1012 141.503L95.9734 138.504Z" fill="#F9F4EA"/>
<path d="M82.8774 140.732L76.2792 136.633L77.2528 135.066L82.1877 138.132L83.5201 135.987L78.8601 133.092L79.8338 131.525L84.4937 134.42L85.8261 132.276L80.8912 129.21L81.8648 127.643L88.463 131.742L82.8774 140.732Z" fill="#F9F4EA"/>
<path d="M65.913 130.495C66.1309 130.301 66.3846 130.213 66.674 130.231C66.9562 130.24 67.194 130.354 67.3873 130.572C67.5806 130.79 67.6686 131.043 67.6512 131.333C67.6267 131.614 67.5055 131.851 67.2876 132.044L68.2541 133.134C68.7061 132.733 68.9279 132.219 68.9196 131.592C68.9033 130.972 68.6588 130.396 68.1863 129.863C67.7138 129.33 67.1707 129.019 66.5571 128.928C65.9354 128.845 65.3985 129.004 64.9465 129.405L65.913 130.495ZM70.4388 131.11L76.1896 126.009L67.636 127.95L65.9607 126.061L73.8786 119.038L75.178 120.503L69.403 125.625L77.9809 123.663L79.6669 125.563L71.749 132.587L70.4388 131.11Z" fill="#F9F4EA"/>
<path d="M62.6336 121.58L59.1258 114.109L60.7811 113.332L62.1224 116.188L70.0475 112.467L70.8797 114.24L62.9546 117.961L64.2889 120.803L62.6336 121.58Z" fill="#F9F4EA"/>
<path d="M56.0227 107.354L63.6267 106.226L55.4033 103.175L55.033 100.678L65.5025 99.126L65.7897 101.063L58.1537 102.195L66.4091 105.241L66.7818 107.755L56.3123 109.307L56.0227 107.354Z" fill="#F9F4EA"/>
</svg>
