<svg width="16" height="10" viewBox="0 0 16 10" fill="none" xmlns="http://www.w3.org/2000/svg">
<path fill-rule="evenodd" clip-rule="evenodd" d="M15.1559 0.859429C15.2597 0.508429 15.1559 0.25 14.6591 0.25H13.0185C12.601 0.25 12.4085 0.473071 12.3041 0.719286C12.3041 0.719286 11.4698 2.77386 10.2879 4.10843C9.90543 4.49543 9.73168 4.61821 9.52294 4.61821C9.41856 4.61821 9.26169 4.49543 9.26169 4.14379V0.859429C9.26169 0.437714 9.14669 0.25 8.7992 0.25H6.21925C5.95864 0.25 5.80176 0.445429 5.80176 0.631214C5.80176 1.03043 6.393 1.123 6.45363 2.24671V4.68829C6.45363 5.22379 6.358 5.32086 6.14926 5.32086C5.59302 5.32086 4.23992 3.25664 3.43681 0.894786C3.28119 0.435143 3.12369 0.25 2.70433 0.25H1.06249C0.593748 0.25 0.5 0.473071 0.5 0.719286C0.5 1.15771 1.05624 3.33571 3.09057 6.21636C4.44679 8.1835 6.35613 9.25 8.09547 9.25C9.13857 9.25 9.26732 9.01343 9.26732 8.60521V7.11829C9.26732 6.6445 9.36606 6.55 9.69668 6.55C9.94043 6.55 10.3573 6.67343 11.331 7.62164C12.4435 8.746 12.6266 9.25 13.2529 9.25H14.8934C15.3622 9.25 15.5972 9.01343 15.4622 8.54543C15.3134 8.08 14.7822 7.40436 14.0778 6.60271C13.6953 6.14629 13.1216 5.6545 12.9472 5.40829C12.7041 5.09264 12.7735 4.95186 12.9472 4.67093C12.9472 4.67093 14.9472 1.82564 15.1553 0.859429H15.1559Z" fill="white"/>
</svg>
