<svg width="12" height="12" viewBox="0 0 12 12" fill="none" xmlns="http://www.w3.org/2000/svg">
<path fill-rule="evenodd" clip-rule="evenodd" d="M5.89062 0.25C2.65449 0.25 0.03125 2.87324 0.03125 6.10937C0.03125 7.21679 0.338867 8.2539 0.873828 9.1375L0.351172 10.9141C0.321163 11.0161 0.319188 11.1243 0.345456 11.2273C0.371723 11.3303 0.425262 11.4244 0.500445 11.4995C0.575628 11.5747 0.669677 11.6283 0.772705 11.6545C0.875734 11.6808 0.983936 11.6788 1.08594 11.6488L2.8625 11.1262C3.77579 11.6788 4.82318 11.9702 5.89062 11.9687C9.12676 11.9687 11.75 9.3455 11.75 6.10937C11.75 2.87324 9.12676 0.25 5.89062 0.25ZM4.56523 7.43535C5.75059 8.62011 6.88203 8.77656 7.28164 8.79121C7.88926 8.81347 8.48105 8.34941 8.71133 7.81093C8.7404 7.74395 8.75095 7.67038 8.74188 7.59793C8.73281 7.52547 8.70445 7.45677 8.65977 7.39902C8.33867 6.98886 7.90449 6.69414 7.48027 6.40117C7.3917 6.33993 7.28286 6.31536 7.17657 6.33262C7.07028 6.34988 6.9748 6.40763 6.91016 6.49375L6.55859 7.02988C6.54011 7.0587 6.51131 7.07937 6.47808 7.08765C6.44486 7.09593 6.40973 7.09119 6.37988 7.07441C6.14141 6.93789 5.79395 6.70586 5.54434 6.45625C5.29473 6.20664 5.07676 5.875 4.9543 5.65175C4.93911 5.62339 4.93472 5.59049 4.94194 5.55914C4.94916 5.52779 4.9675 5.50011 4.99355 5.48125L5.53496 5.07929C5.61223 5.01211 5.66209 4.91886 5.67505 4.8173C5.68802 4.71574 5.66318 4.61295 5.60527 4.52851C5.34277 4.14414 5.03691 3.65547 4.59336 3.33144C4.53612 3.28996 4.46906 3.2641 4.39879 3.25639C4.32852 3.24869 4.25745 3.25941 4.19258 3.2875C3.65352 3.51836 3.18711 4.11015 3.20937 4.71894C3.22402 5.11855 3.38047 6.25 4.56523 7.43535Z" fill="white"/>
</svg>
